<svg version="1.1" id="Layer_1" xmlns="http://www.w3.org/2000/svg" xmlns:xlink="http://www.w3.org/1999/xlink" x="0px" y="0px"
	 width="100%" viewBox="0 0 500 500" enable-background="new 0 0 500 500" xml:space="preserve">
<path fill="#FFFFFF" opacity="1.000000" stroke="none" 
	d="
M343.000000,501.000000 
	C228.666687,501.000000 114.833389,501.000000 1.000061,501.000000 
	C1.000041,334.333405 1.000041,167.666794 1.000020,1.000151 
	C167.666565,1.000100 334.333130,1.000100 500.999756,1.000050 
	C500.999847,167.666519 500.999847,334.333038 500.999939,500.999786 
	C448.500000,501.000000 396.000000,501.000000 343.000000,501.000000 
M314.743958,292.698822 
	C312.060547,294.893219 312.199829,291.576965 311.359436,290.753082 
	C308.000336,287.459991 304.162842,286.422150 299.974213,288.329712 
	C295.834229,290.215088 293.594421,293.738647 294.210327,298.406677 
	C294.816010,302.996918 297.646515,305.989288 302.191315,306.849701 
	C306.389740,307.644531 309.801971,306.234131 311.945190,302.679169 
	C308.849579,297.896454 302.942719,305.358185 300.161530,298.955048 
	C305.408112,298.955048 310.212372,298.955048 314.870514,299.858978 
	C314.870514,302.125732 314.870514,304.392517 314.870514,306.736938 
	C316.849915,306.736938 318.252380,306.736938 320.083557,306.736938 
	C320.083557,303.511475 319.513824,300.392181 320.278992,297.644623 
	C320.810608,295.735718 323.121490,293.131683 324.740845,293.056244 
	C326.312592,292.982971 328.786346,295.458282 329.468201,297.324371 
	C330.332733,299.690460 329.772095,302.571808 329.867798,305.229431 
	C329.884491,305.692535 330.107361,306.148254 330.325134,306.931610 
	C331.737885,306.856445 333.108795,306.783539 334.676086,306.700165 
	C334.676086,302.844727 334.946838,299.351410 334.608002,295.918274 
	C334.178589,291.567505 331.925751,288.203827 327.277710,287.720490 
	C323.356598,287.312744 319.359436,287.636536 315.016602,287.636536 
	C315.016602,289.155151 315.016602,290.599945 314.743958,292.698822 
M420.279205,290.270538 
	C408.995911,315.795654 390.875397,335.380920 367.111786,349.509857 
	C325.985291,373.961975 282.599731,379.963135 237.730957,361.341675 
	C180.293930,337.504120 144.185638,276.898834 149.289307,214.382523 
	C151.607376,185.987808 161.898209,160.619843 181.689423,139.922012 
	C214.942810,105.145309 255.993591,89.765823 303.967773,92.834671 
	C308.590088,93.130348 313.188202,93.804344 317.797577,94.302719 
	C316.715698,92.964767 315.427734,92.396164 314.108063,91.914291 
	C275.480591,77.809990 236.407715,76.451736 197.282761,89.134850 
	C113.440720,116.313843 63.730278,199.809525 82.580170,285.773712 
	C102.309814,375.749908 191.248199,436.614990 287.252899,418.050903 
	C330.012451,409.782623 364.791687,388.170837 391.515656,353.866180 
	C406.199310,335.017273 416.507629,313.933899 421.821350,289.919189 
	C421.821350,289.369843 421.821350,288.820496 421.821350,288.271149 
	C421.660400,288.252319 421.499420,288.233490 421.338470,288.214661 
	C421.173676,288.762238 421.008881,289.309814 420.279205,290.270538 
M355.520721,206.778900 
	C365.266785,204.961197 372.314270,208.775467 375.495422,218.044250 
	C376.497009,220.962601 376.822327,224.226517 376.864716,227.340332 
	C377.020111,238.766800 376.926331,250.196671 376.926331,261.748383 
	C383.439636,261.748383 389.351562,261.748383 395.498016,261.748383 
	C395.498016,247.225800 396.022461,232.931641 395.347931,218.694275 
	C394.696289,204.939285 387.973206,194.382324 374.593414,189.705368 
	C361.050140,184.971268 348.335144,186.701355 337.750580,197.414536 
	C336.969086,198.205521 335.974701,198.786209 335.076843,199.466537 
	C321.551941,186.092651 306.951752,182.920990 290.500458,193.912872 
	C290.247406,191.526886 290.030701,189.484024 289.811859,187.420746 
	C283.120239,187.420746 276.857910,187.420746 270.379517,187.420746 
	C270.379517,212.355652 270.379517,237.036362 270.379517,261.652985 
	C277.138824,261.652985 283.545959,261.652985 290.210663,261.652985 
	C290.210663,252.823700 290.113251,244.341965 290.245605,235.863846 
	C290.331085,230.386856 290.264252,224.834335 291.151917,219.462097 
	C292.188873,213.186508 295.709106,208.465164 302.393524,206.872162 
	C313.960571,204.115601 323.562531,211.525879 323.984467,223.896469 
	C324.273804,232.379807 324.059387,240.880386 324.067169,249.373260 
	C324.070923,253.473373 324.067810,257.573486 324.067810,261.613281 
	C330.774506,261.613281 336.823273,261.613281 343.041962,261.613281 
	C343.041962,249.238220 342.971039,237.253372 343.064362,225.269791 
	C343.139465,215.622482 346.863586,209.924820 355.520721,206.778900 
M205.097488,289.856903 
	C205.962616,288.617462 207.509720,287.412598 207.574585,286.132660 
	C207.852325,280.651154 207.693329,275.147552 207.693451,269.652008 
	C207.693558,264.963867 207.693481,260.275696 207.693481,254.921097 
	C222.271759,267.399323 242.670837,261.079895 252.076324,251.634659 
	C264.976318,238.680115 267.372192,218.857376 257.273193,204.165268 
	C252.207458,196.795593 245.533005,191.403107 236.826477,189.052261 
	C226.632050,186.299652 216.807236,186.860718 207.996414,194.265579 
	C207.751709,191.812103 207.574936,190.039627 207.395706,188.242661 
	C200.550858,188.242661 194.029205,188.242661 187.508881,188.242661 
	C187.508881,222.237259 187.508881,255.797546 187.508881,289.861816 
	C193.264465,289.861816 198.718094,289.861816 205.097488,289.856903 
M254.854889,288.187622 
	C250.295883,290.486267 248.183578,294.192688 249.136581,299.209259 
	C249.919128,303.328613 252.676575,306.019897 256.783417,306.820801 
	C260.990356,307.641235 264.490295,306.355927 267.300934,301.517395 
	C264.571564,301.517395 262.596649,301.634125 260.642303,301.483704 
	C258.778198,301.340271 256.935516,300.918427 255.083435,300.618958 
	C255.193787,300.051636 255.304138,299.484314 255.414490,298.916992 
	C259.667328,298.916992 263.920166,298.916992 268.138885,298.916992 
	C268.458954,290.417297 263.747803,286.469818 254.854889,288.187622 
M354.951965,297.261902 
	C355.442200,297.684692 355.932404,298.107483 356.467468,298.568939 
	C352.598969,299.917938 352.064178,301.858185 354.692841,304.640411 
	C357.525238,307.638275 364.045929,307.905182 367.045898,305.146057 
	C369.924133,302.498901 369.434784,299.573029 366.225800,296.260071 
	C367.077484,294.474426 368.549866,292.882172 368.287567,291.663116 
	C367.427368,287.665070 361.638245,285.737732 357.035675,287.564453 
	C352.875824,289.215424 352.051880,292.082642 354.951965,297.261902 
M274.119385,296.465973 
	C275.509766,299.302246 276.853699,302.162506 278.303009,304.968353 
	C279.902649,308.065216 282.483673,308.196625 283.984558,305.481384 
	C287.079376,299.882629 289.505920,293.914429 292.293823,287.912201 
	C283.230164,285.110931 285.215393,294.508392 280.956635,297.127838 
	C279.697784,294.640747 278.360504,292.350037 277.351227,289.922943 
	C275.810333,286.217438 273.143951,287.327209 270.026550,287.656372 
	C271.455139,290.695587 272.646698,293.230499 274.119385,296.465973 
M350.557495,292.166718 
	C351.848053,288.539734 349.844269,287.122589 346.652405,286.723938 
	C346.483063,284.679230 346.335571,282.898285 346.168274,280.878204 
	C344.371124,280.878204 342.821198,280.878204 341.157288,280.878204 
	C341.087921,281.991089 341.013611,282.804962 340.992371,283.620209 
	C340.966827,284.602509 340.986389,285.585968 340.986389,286.486755 
	C336.924133,287.818115 335.415070,290.313812 337.237244,292.612518 
	C338.353546,292.829315 339.573883,293.066315 341.180023,293.378265 
	C341.180023,298.004242 341.180023,302.414520 341.180023,306.789062 
	C343.086700,306.789062 344.538727,306.789062 346.426056,306.789062 
	C346.426056,303.114594 346.599304,299.643677 346.371552,296.199219 
	C346.187439,293.415009 347.644836,292.779602 350.557495,292.166718 
z"/>
<path fill="#FDCF0A" opacity="1.000000" stroke="none" 
	d="
M421.458496,290.408051 
	C416.507629,313.933899 406.199310,335.017273 391.515656,353.866180 
	C364.791687,388.170837 330.012451,409.782623 287.252899,418.050903 
	C191.248199,436.614990 102.309814,375.749908 82.580170,285.773712 
	C63.730278,199.809525 113.440720,116.313843 197.282761,89.134850 
	C236.407715,76.451736 275.480591,77.809990 314.108063,91.914291 
	C315.427734,92.396164 316.715698,92.964767 317.797577,94.302719 
	C313.188202,93.804344 308.590088,93.130348 303.967773,92.834671 
	C255.993591,89.765823 214.942810,105.145309 181.689423,139.922012 
	C161.898209,160.619843 151.607376,185.987808 149.289307,214.382523 
	C144.185638,276.898834 180.293930,337.504120 237.730957,361.341675 
	C282.599731,379.963135 325.985291,373.961975 367.111786,349.509857 
	C390.875397,335.380920 408.995911,315.795654 420.713440,290.203644 
	C421.147705,290.136749 421.458496,290.408051 421.458496,290.408051 
z"/>
<path fill="#FCD00D" opacity="1.000000" stroke="none" 
	d="
M355.130524,206.857361 
	C346.863586,209.924820 343.139465,215.622482 343.064362,225.269791 
	C342.971039,237.253372 343.041962,249.238220 343.041962,261.613281 
	C336.823273,261.613281 330.774506,261.613281 324.067810,261.613281 
	C324.067810,257.573486 324.070923,253.473373 324.067169,249.373260 
	C324.059387,240.880386 324.273804,232.379807 323.984467,223.896469 
	C323.562531,211.525879 313.960571,204.115601 302.393524,206.872162 
	C295.709106,208.465164 292.188873,213.186508 291.151917,219.462097 
	C290.264252,224.834335 290.331085,230.386856 290.245605,235.863846 
	C290.113251,244.341965 290.210663,252.823700 290.210663,261.652985 
	C283.545959,261.652985 277.138824,261.652985 270.379517,261.652985 
	C270.379517,237.036362 270.379517,212.355652 270.379517,187.420746 
	C276.857910,187.420746 283.120239,187.420746 289.811859,187.420746 
	C290.030701,189.484024 290.247406,191.526886 290.500458,193.912872 
	C306.951752,182.920990 321.551941,186.092651 335.076843,199.466537 
	C335.974701,198.786209 336.969086,198.205521 337.750580,197.414536 
	C348.335144,186.701355 361.050140,184.971268 374.593414,189.705368 
	C387.973206,194.382324 394.696289,204.939285 395.347931,218.694275 
	C396.022461,232.931641 395.498016,247.225800 395.498016,261.748383 
	C389.351562,261.748383 383.439636,261.748383 376.926331,261.748383 
	C376.926331,250.196671 377.020111,238.766800 376.864716,227.340332 
	C376.822327,224.226517 376.497009,220.962601 375.495422,218.044250 
	C372.314270,208.775467 365.266785,204.961197 355.130524,206.857361 
z"/>
<path fill="#FCD00F" opacity="1.000000" stroke="none" 
	d="
M204.634613,289.859375 
	C198.718094,289.861816 193.264465,289.861816 187.508881,289.861816 
	C187.508881,255.797546 187.508881,222.237259 187.508881,188.242661 
	C194.029205,188.242661 200.550858,188.242661 207.395706,188.242661 
	C207.574936,190.039627 207.751709,191.812103 207.996414,194.265579 
	C216.807236,186.860718 226.632050,186.299652 236.826477,189.052261 
	C245.533005,191.403107 252.207458,196.795593 257.273193,204.165268 
	C267.372192,218.857376 264.976318,238.680115 252.076324,251.634659 
	C242.670837,261.079895 222.271759,267.399323 207.693481,254.921097 
	C207.693481,260.275696 207.693558,264.963867 207.693451,269.652008 
	C207.693329,275.147552 207.852325,280.651154 207.574585,286.132660 
	C207.509720,287.412598 205.962616,288.617462 204.634613,289.859375 
M209.487396,217.308701 
	C209.103607,218.403519 208.618225,219.474243 208.351974,220.596939 
	C206.010361,230.471008 212.767395,241.037094 222.565811,242.876785 
	C233.189880,244.871506 243.211990,237.600677 244.466934,226.987991 
	C245.473679,218.474106 240.672592,210.592651 232.714890,207.695862 
	C223.698303,204.413635 215.420670,207.646210 209.487396,217.308701 
z"/>
<path fill="#FCD21A" opacity="1.000000" stroke="none" 
	d="
M315.016632,298.955048 
	C310.212372,298.955048 305.408112,298.955048 300.161530,298.955048 
	C302.942719,305.358185 308.849579,297.896454 311.945190,302.679169 
	C309.801971,306.234131 306.389740,307.644531 302.191315,306.849701 
	C297.646515,305.989288 294.816010,302.996918 294.210327,298.406677 
	C293.594421,293.738647 295.834229,290.215088 299.974213,288.329712 
	C304.162842,286.422150 308.000336,287.459991 311.359436,290.753082 
	C312.199829,291.576965 312.060547,294.893219 314.884552,292.803406 
	C315.022308,294.923676 315.019470,296.939362 315.016632,298.955048 
z"/>
<path fill="#FCD21A" opacity="1.000000" stroke="none" 
	d="
M255.214417,288.076172 
	C263.747803,286.469818 268.458954,290.417297 268.138885,298.916992 
	C263.920166,298.916992 259.667328,298.916992 255.414490,298.916992 
	C255.304138,299.484314 255.193787,300.051636 255.083435,300.618958 
	C256.935516,300.918427 258.778198,301.340271 260.642303,301.483704 
	C262.596649,301.634125 264.571564,301.517395 267.300934,301.517395 
	C264.490295,306.355927 260.990356,307.641235 256.783417,306.820801 
	C252.676575,306.019897 249.919128,303.328613 249.136581,299.209259 
	C248.183578,294.192688 250.295883,290.486267 255.214417,288.076172 
z"/>
<path fill="#FCD31E" opacity="1.000000" stroke="none" 
	d="
M354.668030,297.026825 
	C352.051880,292.082642 352.875824,289.215424 357.035675,287.564453 
	C361.638245,285.737732 367.427368,287.665070 368.287567,291.663116 
	C368.549866,292.882172 367.077484,294.474426 366.225800,296.260071 
	C369.434784,299.573029 369.924133,302.498901 367.045898,305.146057 
	C364.045929,307.905182 357.525238,307.638275 354.692841,304.640411 
	C352.064178,301.858185 352.598969,299.917938 356.467468,298.568939 
	C355.932404,298.107483 355.442200,297.684692 354.668030,297.026825 
z"/>
<path fill="#FCD114" opacity="1.000000" stroke="none" 
	d="
M314.943573,299.407013 
	C315.019470,296.939362 315.022308,294.923676 315.020874,292.476379 
	C315.016602,290.599945 315.016602,289.155151 315.016602,287.636536 
	C319.359436,287.636536 323.356598,287.312744 327.277710,287.720490 
	C331.925751,288.203827 334.178589,291.567505 334.608002,295.918274 
	C334.946838,299.351410 334.676086,302.844727 334.676086,306.700165 
	C333.108795,306.783539 331.737885,306.856445 330.325134,306.931610 
	C330.107361,306.148254 329.884491,305.692535 329.867798,305.229431 
	C329.772095,302.571808 330.332733,299.690460 329.468201,297.324371 
	C328.786346,295.458282 326.312592,292.982971 324.740845,293.056244 
	C323.121490,293.131683 320.810608,295.735718 320.278992,297.644623 
	C319.513824,300.392181 320.083557,303.511475 320.083557,306.736938 
	C318.252380,306.736938 316.849915,306.736938 314.870514,306.736938 
	C314.870514,304.392517 314.870514,302.125732 314.943573,299.407013 
z"/>
<path fill="#FCD21A" opacity="1.000000" stroke="none" 
	d="
M273.978821,296.115692 
	C272.646698,293.230499 271.455139,290.695587 270.026550,287.656372 
	C273.143951,287.327209 275.810333,286.217438 277.351227,289.922943 
	C278.360504,292.350037 279.697784,294.640747 280.956635,297.127838 
	C285.215393,294.508392 283.230164,285.110931 292.293823,287.912201 
	C289.505920,293.914429 287.079376,299.882629 283.984558,305.481384 
	C282.483673,308.196625 279.902649,308.065216 278.303009,304.968353 
	C276.853699,302.162506 275.509766,299.302246 273.978821,296.115692 
z"/>
<path fill="#FCD113" opacity="1.000000" stroke="none" 
	d="
M350.228119,292.438385 
	C347.644836,292.779602 346.187439,293.415009 346.371552,296.199219 
	C346.599304,299.643677 346.426056,303.114594 346.426056,306.789062 
	C344.538727,306.789062 343.086700,306.789062 341.180023,306.789062 
	C341.180023,302.414520 341.180023,298.004242 341.180023,293.378265 
	C339.573883,293.066315 338.353546,292.829315 337.237244,292.612518 
	C335.415070,290.313812 336.924133,287.818115 340.986389,286.486755 
	C340.986389,285.585968 340.966827,284.602509 340.992371,283.620209 
	C341.013611,282.804962 341.087921,281.991089 341.157288,280.878204 
	C342.821198,280.878204 344.371124,280.878204 346.168274,280.878204 
	C346.335571,282.898285 346.483063,284.679230 346.652405,286.723938 
	C349.844269,287.122589 351.848053,288.539734 350.228119,292.438385 
z"/>
<path fill="#FDCF0A" opacity="1.000000" stroke="none" 
	d="
M420.995911,289.997070 
	C421.008881,289.309814 421.173676,288.762238 421.338470,288.214661 
	C421.499420,288.233490 421.660400,288.252319 421.821350,288.271149 
	C421.821350,288.820496 421.821350,289.369843 421.639923,290.163635 
	C421.458496,290.408051 421.147705,290.136749 420.995911,289.997070 
z"/>
<path fill="#FFFEFC" opacity="1.000000" stroke="none" 
	d="
M209.668274,216.967041 
	C215.420670,207.646210 223.698303,204.413635 232.714890,207.695862 
	C240.672592,210.592651 245.473679,218.474106 244.466934,226.987991 
	C243.211990,237.600677 233.189880,244.871506 222.565811,242.876785 
	C212.767395,241.037094 206.010361,230.471008 208.351974,220.596939 
	C208.618225,219.474243 209.103607,218.403519 209.668274,216.967041 
z"/>
</svg>