<svg version="1.1" id="Layer_1" xmlns="http://www.w3.org/2000/svg" xmlns:xlink="http://www.w3.org/1999/xlink" x="0px" y="0px"
	 width="100%" viewBox="0 0 500 500" enable-background="new 0 0 500 500" xml:space="preserve">
<path fill="#000000" opacity="1.000000" stroke="none" 
	d="
M343.000000,501.000000 
	C228.666687,501.000000 114.833389,501.000000 1.000041,501.000000 
	C1.000000,417.666718 1.000000,334.333435 1.000000,251.000137 
	C1.000000,167.666824 1.000000,84.333511 1.000000,1.000151 
	C167.666565,1.000100 334.333130,1.000100 500.999756,1.000050 
	C500.999847,167.666519 500.999847,334.333038 500.999939,500.999786 
	C448.500000,501.000000 396.000000,501.000000 343.000000,501.000000 
M314.848694,299.858612 
	C314.848694,302.131409 314.848694,304.404205 314.848694,307.037994 
	C316.904572,306.933380 318.435028,306.855499 320.054688,306.773071 
	C320.054688,304.577911 320.033936,302.916809 320.058929,301.256378 
	C320.115784,297.475189 319.311829,292.677155 325.005585,292.782593 
	C330.639069,292.886963 329.669342,297.742401 329.796326,301.468018 
	C329.856598,303.236084 329.806732,305.007904 329.806732,307.140594 
	C331.819855,306.926910 333.197876,306.780640 334.937042,306.596008 
	C334.743439,302.421722 334.803894,298.593658 334.324982,294.834351 
	C333.840668,291.032959 331.584229,288.217377 327.616028,287.852753 
	C323.566864,287.480652 319.456879,287.770447 315.016357,287.770447 
	C315.016357,289.153687 315.016357,290.598846 314.817749,292.864685 
	C314.681396,293.437408 314.545013,294.010132 314.348602,294.835083 
	C309.367523,288.181122 305.661530,286.281830 300.778473,288.019714 
	C296.610626,289.503082 294.212677,292.649292 294.166534,297.069427 
	C294.118134,301.711670 296.561951,305.069214 300.961151,306.493378 
	C305.516235,307.967957 309.345062,306.697662 312.548859,301.650879 
	C307.986938,301.397583 304.120178,301.182892 300.253418,300.968201 
	C300.293945,300.297424 300.334473,299.626617 300.375000,298.955841 
	C305.255432,298.955841 310.135895,298.955841 314.848694,299.858612 
M327.578156,405.070038 
	C351.034637,394.152679 370.973450,378.673035 387.623779,358.893433 
	C403.755859,339.729553 422.384918,301.375610 420.272278,291.163269 
	C419.798401,291.822418 419.334930,292.293060 419.072418,292.857208 
	C407.678131,317.344269 389.738068,335.941650 366.835907,349.729492 
	C333.437408,369.836487 297.449280,377.331177 259.184326,368.306335 
	C215.881912,358.093475 184.810394,331.491791 164.932556,292.310150 
	C144.562057,252.157349 142.148651,210.626907 161.634171,169.412354 
	C187.235016,115.262993 249.114212,89.510315 300.031982,92.304184 
	C306.009064,92.632149 311.948883,93.638977 317.906006,94.331085 
	C316.729004,93.066513 315.331238,92.389900 313.879700,91.860840 
	C275.425110,77.844948 236.594620,76.634216 197.562622,89.051941 
	C117.515396,114.518318 64.433548,195.204788 82.073166,283.410065 
	C95.080902,348.454010 147.861710,405.708710 222.707718,418.807312 
	C258.555878,425.080994 293.591431,420.936859 327.578156,405.070038 
M374.365448,215.382416 
	C375.217529,219.230545 376.695374,223.061050 376.804352,226.930130 
	C377.130676,238.517014 376.921692,250.118988 376.921692,261.751923 
	C383.447449,261.751923 389.367798,261.751923 395.293976,261.751923 
	C395.293976,246.887894 395.835968,232.250671 395.135284,217.673172 
	C394.487854,204.204193 387.450317,194.184448 374.521149,189.710541 
	C361.397858,185.169464 348.895691,186.571121 338.394073,196.808258 
	C337.360718,197.815582 336.175171,198.666763 334.915009,199.710739 
	C329.135468,193.210449 322.533447,188.858139 313.951324,187.794556 
	C305.349091,186.728500 297.536469,188.241684 290.535492,194.546707 
	C290.269257,191.584549 290.084900,189.533524 289.905731,187.540298 
	C283.117340,187.540298 276.711121,187.540298 270.309875,187.540298 
	C270.309875,212.479813 270.309875,237.064377 270.309875,261.755310 
	C277.002930,261.755310 283.419098,261.755310 290.235596,261.755310 
	C290.235596,253.051773 290.147888,244.592224 290.266968,236.135590 
	C290.344116,230.653885 290.259308,225.105072 291.088196,219.715698 
	C292.055847,213.424423 295.503235,208.651794 302.127747,206.912750 
	C313.735077,203.865631 323.707489,211.544800 323.997894,224.123993 
	C324.255524,235.282486 324.057495,246.451324 324.087036,257.615509 
	C324.090790,259.037445 324.253815,260.458984 324.335052,261.753479 
	C330.784637,261.753479 336.726562,261.753479 343.038910,261.753479 
	C343.038910,259.878204 343.037964,258.249634 343.039093,256.621063 
	C343.046448,245.790054 342.894226,234.955841 343.111481,224.129028 
	C343.292480,215.108673 347.840698,208.753738 354.865265,206.898376 
	C363.063751,204.732956 369.055450,207.178116 374.365448,215.382416 
M247.938599,194.508835 
	C234.792297,185.937790 221.515366,184.538895 207.935318,194.053329 
	C207.688034,191.887360 207.469864,189.976410 207.256027,188.103439 
	C200.509125,188.103439 194.090073,188.103439 187.612686,188.103439 
	C187.612686,222.124603 187.612686,255.831131 187.612686,289.497192 
	C194.402252,289.497192 200.802200,289.497192 207.630539,289.497192 
	C207.630539,283.517120 207.630524,277.881073 207.630524,272.244995 
	C207.630524,266.679535 207.630539,261.114044 207.630539,254.512344 
	C213.119293,259.707947 218.716476,261.805939 225.063507,261.985504 
	C241.133743,262.440186 255.654099,252.734085 261.202942,237.804474 
	C266.981873,222.255783 262.268066,206.347351 247.938599,194.508835 
M251.547729,303.887848 
	C257.756989,308.664246 262.343170,308.199097 267.199188,301.619873 
	C262.818604,301.399353 258.964325,301.205292 255.110031,301.011261 
	C255.145889,300.338959 255.181732,299.666626 255.217590,298.994324 
	C259.576202,298.994324 263.934784,298.994324 268.277588,298.994324 
	C268.718231,293.520294 266.702209,289.869110 262.163544,288.144287 
	C258.105225,286.602051 254.163437,287.456848 251.298233,290.919983 
	C248.020294,294.881989 248.078430,299.107880 251.547729,303.887848 
M355.111145,299.225891 
	C354.399384,299.705719 353.687592,300.185547 352.975800,300.665344 
	C354.686798,302.675568 356.024170,305.593323 358.194855,306.486816 
	C361.592041,307.885193 365.907684,307.673889 367.783936,303.839600 
	C368.641235,302.087616 367.255676,299.153442 366.648712,296.817444 
	C366.447296,296.042328 365.500671,295.460846 364.632538,294.500946 
	C366.346619,294.142365 367.562164,293.888062 368.845856,293.619537 
	C368.142639,289.357239 365.647491,286.814362 361.758240,287.162476 
	C358.951813,287.413666 355.475708,288.636658 353.764008,290.663849 
	C351.259766,293.629669 353.750153,296.435059 356.341156,298.540527 
	C356.170532,298.740997 355.999878,298.941467 355.111145,299.225891 
M280.878204,296.843048 
	C279.956207,295.089325 278.782166,293.419556 278.164398,291.564514 
	C276.857056,287.638763 274.419800,286.467133 270.124115,287.948669 
	C272.957275,293.809723 275.635712,299.625549 278.572784,305.307739 
	C279.986816,308.043335 282.666718,307.962219 283.926117,305.620087 
	C286.995911,299.911102 289.460205,293.876587 292.190369,287.925110 
	C287.785492,286.461884 285.592499,287.842072 284.374695,291.499664 
	C283.703522,293.515381 282.504425,295.355316 280.878204,296.843048 
M338.178345,292.861755 
	C339.115570,293.772552 340.777130,294.621368 340.861328,295.605164 
	C341.180847,299.339294 340.990051,303.117096 340.990051,306.818268 
	C343.032928,306.818268 344.495819,306.818268 346.375458,306.818268 
	C346.375458,302.211639 346.375458,297.794922 346.375458,293.351532 
	C348.019897,292.998901 349.274719,292.729797 350.300018,292.509949 
	C352.431946,288.056763 349.238434,287.335175 346.485474,286.709259 
	C346.312897,284.553528 346.170532,282.775604 346.002777,280.680328 
	C344.201233,280.776733 342.655853,280.859436 340.925720,280.952026 
	C340.925720,283.247375 340.925720,285.053986 340.925720,287.084198 
	C336.514648,287.056244 335.695099,289.171082 338.178345,292.861755 
z"/>
<path fill="#FCCE09" opacity="1.000000" stroke="none" 
	d="
M327.237061,405.234192 
	C293.591431,420.936859 258.555878,425.080994 222.707718,418.807312 
	C147.861710,405.708710 95.080902,348.454010 82.073166,283.410065 
	C64.433548,195.204788 117.515396,114.518318 197.562622,89.051941 
	C236.594620,76.634216 275.425110,77.844948 313.879700,91.860840 
	C315.331238,92.389900 316.729004,93.066513 317.906006,94.331085 
	C311.948883,93.638977 306.009064,92.632149 300.031982,92.304184 
	C249.114212,89.510315 187.235016,115.262993 161.634171,169.412354 
	C142.148651,210.626907 144.562057,252.157349 164.932556,292.310150 
	C184.810394,331.491791 215.881912,358.093475 259.184326,368.306335 
	C297.449280,377.331177 333.437408,369.836487 366.835907,349.729492 
	C389.738068,335.941650 407.678131,317.344269 419.072418,292.857208 
	C419.334930,292.293060 419.798401,291.822418 420.272278,291.163269 
	C422.384918,301.375610 403.755859,339.729553 387.623779,358.893433 
	C370.973450,378.673035 351.034637,394.152679 327.237061,405.234192 
z"/>
<path fill="#F9CD0A" opacity="1.000000" stroke="none" 
	d="
M374.188202,215.046997 
	C369.055450,207.178116 363.063751,204.732956 354.865265,206.898376 
	C347.840698,208.753738 343.292480,215.108673 343.111481,224.129028 
	C342.894226,234.955841 343.046448,245.790054 343.039093,256.621063 
	C343.037964,258.249634 343.038910,259.878204 343.038910,261.753479 
	C336.726562,261.753479 330.784637,261.753479 324.335052,261.753479 
	C324.253815,260.458984 324.090790,259.037445 324.087036,257.615509 
	C324.057495,246.451324 324.255524,235.282486 323.997894,224.123993 
	C323.707489,211.544800 313.735077,203.865631 302.127747,206.912750 
	C295.503235,208.651794 292.055847,213.424423 291.088196,219.715698 
	C290.259308,225.105072 290.344116,230.653885 290.266968,236.135590 
	C290.147888,244.592224 290.235596,253.051773 290.235596,261.755310 
	C283.419098,261.755310 277.002930,261.755310 270.309875,261.755310 
	C270.309875,237.064377 270.309875,212.479813 270.309875,187.540298 
	C276.711121,187.540298 283.117340,187.540298 289.905731,187.540298 
	C290.084900,189.533524 290.269257,191.584549 290.535492,194.546707 
	C297.536469,188.241684 305.349091,186.728500 313.951324,187.794556 
	C322.533447,188.858139 329.135468,193.210449 334.915009,199.710739 
	C336.175171,198.666763 337.360718,197.815582 338.394073,196.808258 
	C348.895691,186.571121 361.397858,185.169464 374.521149,189.710541 
	C387.450317,194.184448 394.487854,204.204193 395.135284,217.673172 
	C395.835968,232.250671 395.293976,246.887894 395.293976,261.751923 
	C389.367798,261.751923 383.447449,261.751923 376.921692,261.751923 
	C376.921692,250.118988 377.130676,238.517014 376.804352,226.930130 
	C376.695374,223.061050 375.217529,219.230545 374.188202,215.046997 
z"/>
<path fill="#F7CB0A" opacity="1.000000" stroke="none" 
	d="
M248.221985,194.730316 
	C262.268066,206.347351 266.981873,222.255783 261.202942,237.804474 
	C255.654099,252.734085 241.133743,262.440186 225.063507,261.985504 
	C218.716476,261.805939 213.119293,259.707947 207.630539,254.512344 
	C207.630539,261.114044 207.630524,266.679535 207.630524,272.244995 
	C207.630524,277.881073 207.630539,283.517120 207.630539,289.497192 
	C200.802200,289.497192 194.402252,289.497192 187.612686,289.497192 
	C187.612686,255.831131 187.612686,222.124603 187.612686,188.103439 
	C194.090073,188.103439 200.509125,188.103439 207.256027,188.103439 
	C207.469864,189.976410 207.688034,191.887360 207.935318,194.053329 
	C221.515366,184.538895 234.792297,185.937790 248.221985,194.730316 
M236.012054,209.230820 
	C222.956161,202.755981 208.915222,209.707184 207.983261,223.106934 
	C207.359253,232.078918 212.772812,240.036728 221.180679,242.506943 
	C229.377655,244.915176 238.791000,240.821793 242.755249,233.125229 
	C246.744888,225.379395 244.218063,215.717651 236.012054,209.230820 
z"/>
<path fill="#EBC109" opacity="1.000000" stroke="none" 
	d="
M315.016357,298.955841 
	C310.135895,298.955841 305.255432,298.955841 300.375000,298.955841 
	C300.334473,299.626617 300.293945,300.297424 300.253418,300.968201 
	C304.120178,301.182892 307.986938,301.397583 312.548859,301.650879 
	C309.345062,306.697662 305.516235,307.967957 300.961151,306.493378 
	C296.561951,305.069214 294.118134,301.711670 294.166534,297.069427 
	C294.212677,292.649292 296.610626,289.503082 300.778473,288.019714 
	C305.661530,286.281830 309.367523,288.181122 314.348602,294.835083 
	C314.545013,294.010132 314.681396,293.437408 314.938293,292.885925 
	C315.044678,294.923401 315.030518,296.939606 315.016357,298.955841 
z"/>
<path fill="#ECC209" opacity="1.000000" stroke="none" 
	d="
M251.298645,303.591370 
	C248.078430,299.107880 248.020294,294.881989 251.298233,290.919983 
	C254.163437,287.456848 258.105225,286.602051 262.163544,288.144287 
	C266.702209,289.869110 268.718231,293.520294 268.277588,298.994324 
	C263.934784,298.994324 259.576202,298.994324 255.217590,298.994324 
	C255.181732,299.666626 255.145889,300.338959 255.110031,301.011261 
	C258.964325,301.205292 262.818604,301.399353 267.199188,301.619873 
	C262.343170,308.199097 257.756989,308.664246 251.298645,303.591370 
z"/>
<path fill="#E8BE09" opacity="1.000000" stroke="none" 
	d="
M355.470184,299.183899 
	C355.999878,298.941467 356.170532,298.740997 356.341156,298.540527 
	C353.750153,296.435059 351.259766,293.629669 353.764008,290.663849 
	C355.475708,288.636658 358.951813,287.413666 361.758240,287.162476 
	C365.647491,286.814362 368.142639,289.357239 368.845856,293.619537 
	C367.562164,293.888062 366.346619,294.142365 364.632538,294.500946 
	C365.500671,295.460846 366.447296,296.042328 366.648712,296.817444 
	C367.255676,299.153442 368.641235,302.087616 367.783936,303.839600 
	C365.907684,307.673889 361.592041,307.885193 358.194855,306.486816 
	C356.024170,305.593323 354.686798,302.675568 352.975800,300.665344 
	C353.687592,300.185547 354.399384,299.705719 355.470184,299.183899 
z"/>
<path fill="#F2C70A" opacity="1.000000" stroke="none" 
	d="
M314.932495,299.407227 
	C315.030518,296.939606 315.044678,294.923401 315.037598,292.475586 
	C315.016357,290.598846 315.016357,289.153687 315.016357,287.770447 
	C319.456879,287.770447 323.566864,287.480652 327.616028,287.852753 
	C331.584229,288.217377 333.840668,291.032959 334.324982,294.834351 
	C334.803894,298.593658 334.743439,302.421722 334.937042,306.596008 
	C333.197876,306.780640 331.819855,306.926910 329.806732,307.140594 
	C329.806732,305.007904 329.856598,303.236084 329.796326,301.468018 
	C329.669342,297.742401 330.639069,292.886963 325.005585,292.782593 
	C319.311829,292.677155 320.115784,297.475189 320.058929,301.256378 
	C320.033936,302.916809 320.054688,304.577911 320.054688,306.773071 
	C318.435028,306.855499 316.904572,306.933380 314.848694,307.037994 
	C314.848694,304.404205 314.848694,302.131409 314.932495,299.407227 
z"/>
<path fill="#EBC109" opacity="1.000000" stroke="none" 
	d="
M281.210785,297.058777 
	C282.504425,295.355316 283.703522,293.515381 284.374695,291.499664 
	C285.592499,287.842072 287.785492,286.461884 292.190369,287.925110 
	C289.460205,293.876587 286.995911,299.911102 283.926117,305.620087 
	C282.666718,307.962219 279.986816,308.043335 278.572784,305.307739 
	C275.635712,299.625549 272.957275,293.809723 270.124115,287.948669 
	C274.419800,286.467133 276.857056,287.638763 278.164398,291.564514 
	C278.782166,293.419556 279.956207,295.089325 281.210785,297.058777 
z"/>
<path fill="#F2C709" opacity="1.000000" stroke="none" 
	d="
M337.783142,292.787048 
	C335.695099,289.171082 336.514648,287.056244 340.925720,287.084198 
	C340.925720,285.053986 340.925720,283.247375 340.925720,280.952026 
	C342.655853,280.859436 344.201233,280.776733 346.002777,280.680328 
	C346.170532,282.775604 346.312897,284.553528 346.485474,286.709259 
	C349.238434,287.335175 352.431946,288.056763 350.300018,292.509949 
	C349.274719,292.729797 348.019897,292.998901 346.375458,293.351532 
	C346.375458,297.794922 346.375458,302.211639 346.375458,306.818268 
	C344.495819,306.818268 343.032928,306.818268 340.990051,306.818268 
	C340.990051,303.117096 341.180847,299.339294 340.861328,295.605164 
	C340.777130,294.621368 339.115570,293.772552 337.783142,292.787048 
z"/>
<path fill="#030300" opacity="1.000000" stroke="none" 
	d="
M236.317749,209.455002 
	C244.218063,215.717651 246.744888,225.379395 242.755249,233.125229 
	C238.791000,240.821793 229.377655,244.915176 221.180679,242.506943 
	C212.772812,240.036728 207.359253,232.078918 207.983261,223.106934 
	C208.915222,209.707184 222.956161,202.755981 236.317749,209.455002 
z"/>
</svg>